# xmcd
#
# Track frame offsets: 
#        150
#        19837
#        36071
#        52439
#        73155
#        87154
#        108004
#        125199
#        142254
#        154724
#        172384
#        191029
#
# Disc length: 2761 seconds
#
# Revision: 0
# Processed by: cddbd v1.5.2PL0 Copyright (c) Steve Scherf et al.
# Submitted via: ExactAudioCopyFreeDBPlugin 1.0
#
DISCID=b90ac70c
DTITLE=John Hiatt - Mystic Pinball
DYEAR=2012
DGENRE=Country
TTITLE0=We're Alright Now
TTITLE1=Bite Marks
TTITLE2=It All Comes Back Someday
TTITLE3=Wood Chipper
TTITLE4=My Business
TTITLE5=I Just Don't Know What To Say
TTITLE6=I Know How To Lose You
TTITLE7=You're All The Reason I Need
TTITLE8=One Of Them Damn Days
TTITLE9=No Wicked Grin
TTITLE10=Give It Up
TTITLE11=Blues Can't Even Find Me
EXTD=
EXTT0=
EXTT1=
EXTT2=
EXTT3=
EXTT4=
EXTT5=
EXTT6=
EXTT7=
EXTT8=
EXTT9=
EXTT10=
EXTT11=
PLAYORDER=
